<?xml version="1.0" standalone="no"?>
<!DOCTYPE svg PUBLIC "-//W3C//DTD SVG 20010904//EN"
 "http://www.w3.org/TR/2001/REC-SVG-20010904/DTD/svg10.dtd">
<svg version="1.0" xmlns="http://www.w3.org/2000/svg"
 width="16.000000pt" height="16.000000pt" viewBox="0 0 16.000000 16.000000"
 preserveAspectRatio="xMidYMid meet">
<metadata>
Created by potrace 1.11, written by Peter Selinger 2001-2013
</metadata>
<g transform="translate(0.000000,16.000000) scale(0.020253,-0.020253)"
fill="#000000" stroke="none">
<path d="M227 753 c-29 -31 -57 -91 -57 -123 0 -12 -4 -18 -10 -15 -9 6 -15
-35 -10 -78 1 -15 -3 -17 -20 -12 -19 6 -21 4 -15 -17 4 -12 16 -39 26 -59
l18 -36 -29 3 c-17 2 -30 0 -30 -4 0 -12 46 -72 67 -87 17 -13 16 -14 -10 -35
-33 -26 -29 -38 5 -17 13 9 38 13 58 11 89 -10 119 -17 114 -26 -4 -6 1 -6 12
0 11 6 45 18 76 27 31 9 62 23 69 31 13 16 33 8 23 -9 -4 -7 -4 -9 1 -5 11 10
60 -17 83 -47 14 -18 19 -35 15 -57 -7 -48 -29 -60 -88 -52 -76 11 -203 8
-218 -4 -8 -7 -18 -8 -22 -4 -5 4 -5 2 -2 -5 4 -6 2 -13 -4 -15 -6 -2 -12 -16
-11 -31 0 -30 19 -60 33 -51 5 3 9 0 9 -5 0 -15 -90 -14 -118 2 -13 6 -31 24
-40 39 -15 25 -15 29 4 63 10 20 31 50 45 67 21 26 30 30 52 24 30 -7 37 -40
12 -50 -11 -4 -15 0 -13 12 2 10 -3 17 -12 17 -8 0 -15 -9 -15 -20 -1 -11 -5
-27 -10 -35 -7 -12 -6 -13 6 -4 8 6 25 11 38 12 14 0 29 9 35 19 13 23 17 65
6 58 -5 -3 -12 -1 -15 5 -4 6 -24 10 -45 8 -21 -1 -37 -5 -35 -9 3 -4 -2 -12
-10 -19 -8 -7 -25 -30 -37 -51 -24 -43 -34 -48 -43 -21 -3 11 -17 24 -31 31
-22 9 -31 9 -50 -4 -13 -8 -25 -19 -25 -23 -6 -35 -4 -54 7 -63 8 -6 12 -15 9
-19 -6 -9 48 -6 64 4 6 4 15 -3 20 -17 12 -30 31 -44 31 -23 0 8 -4 18 -10 21
-5 3 -10 12 -10 18 0 7 11 -2 25 -20 14 -17 37 -35 52 -40 40 -14 106 -8 137
12 30 20 36 59 9 53 -10 -2 -17 -11 -15 -21 2 -12 -2 -15 -15 -10 -24 9 -32
22 -25 45 7 29 41 37 85 22 20 -7 37 -11 37 -7 0 3 6 1 13 -4 6 -5 26 -8 42
-7 54 4 158 33 166 45 5 9 10 5 14 -12 3 -14 12 -26 20 -26 8 0 11 7 7 15 -4
11 -1 14 11 9 9 -3 19 -2 21 2 3 5 18 7 33 4 26 -3 26 -3 6 6 -13 6 -23 16
-23 23 0 9 -3 9 -10 -2 -8 -13 -11 -13 -19 -1 -7 11 -11 10 -20 -5 -9 -17 -10
-15 -11 11 -1 29 -1 29 -16 10 -16 -19 -16 -19 -8 5 21 68 0 125 -65 181 -28
24 -51 52 -51 62 0 23 -16 55 -42 83 -19 22 -19 22 3 38 13 9 32 16 42 16 14
0 16 -4 7 -19 -11 -21 -4 -51 12 -51 6 0 8 -7 5 -14 -4 -10 -1 -13 9 -9 7 3
14 1 14 -4 0 -5 7 -10 14 -10 11 0 12 5 6 17 -11 21 -6 56 9 52 12 -2 14 8 5
32 -3 9 -10 13 -15 10 -5 -3 -6 -11 -3 -17 4 -7 -4 -2 -18 11 -43 39 -148 22
-122 -20 11 -17 -75 50 -102 80 -24 27 -22 60 8 92 24 26 44 21 40 -10 -2 -21
41 -80 58 -80 8 0 6 57 -4 86 -16 51 -114 54 -158 4 -16 -17 -28 -42 -28 -56
0 -27 28 -94 39 -94 3 0 17 -10 31 -23 14 -12 41 -34 60 -47 65 -46 100 -78
100 -94 0 -5 -9 0 -20 12 -11 11 -55 48 -99 81 -86 66 -121 104 -121 132 0 10
-4 20 -9 23 -12 8 -7 87 8 114 15 29 10 28 -22 -5z m93 -47 c0 -3 -4 -8 -10
-11 -5 -3 -10 -1 -10 4 0 6 5 11 10 11 6 0 10 -2 10 -4z m-69 -136 c6 0 8 -7
5 -16 -3 -8 -2 -13 3 -10 4 3 17 -4 27 -15 10 -11 33 -29 51 -40 18 -11 33
-27 33 -35 0 -7 6 -11 13 -8 18 6 92 -68 94 -94 2 -31 -30 -46 -81 -37 -22 4
-76 9 -118 10 -73 2 -78 4 -115 39 l-38 36 33 -9 c17 -5 32 -8 32 -5 0 3 9 0
20 -6 14 -7 20 -7 20 0 0 5 -4 10 -10 10 -5 0 -23 19 -40 42 -23 31 -27 44
-18 49 7 5 11 24 10 46 l-3 38 20 -25 20 -25 -5 35 c-3 19 -8 37 -10 39 -2 2
2 11 9 19 9 13 9 14 -1 8 -9 -5 -11 -1 -8 16 3 13 5 32 6 43 1 11 11 -8 21
-42 11 -35 25 -63 30 -63z m49 90 c0 -5 -4 -10 -10 -10 -5 0 -10 5 -10 10 0 6
5 10 10 10 6 0 10 -4 10 -10z m11 -53 c-13 -13 -26 -3 -16 12 3 6 11 8 17 5 6
-4 6 -10 -1 -17z m29 -27 c0 -5 -4 -10 -10 -10 -5 0 -10 5 -10 10 0 6 5 10 10
10 6 0 10 -4 10 -10z m26 -37 c-10 -10 -19 5 -10 18 6 11 8 11 12 0 2 -7 1
-15 -2 -18z m39 -13 c-3 -5 -11 -10 -16 -10 -6 0 -7 5 -4 10 3 6 11 10 16 10
6 0 7 -4 4 -10z m35 -19 c0 -6 -4 -13 -10 -16 -5 -3 -10 1 -10 9 0 9 5 16 10
16 6 0 10 -4 10 -9z m30 -31 c0 -5 -5 -10 -11 -10 -5 0 -7 5 -4 10 3 6 8 10
11 10 2 0 4 -4 4 -10z m87 -146 c-9 -9 -28 6 -21 18 4 6 10 6 17 -1 6 -6 8
-13 4 -17z m43 -18 c0 -11 -19 -15 -25 -6 -3 5 1 10 9 10 9 0 16 -2 16 -4z
m-225 -17 c18 -7 18 -8 -5 -10 -41 -3 -94 2 -110 12 -19 11 86 9 115 -2z
m-279 -154 c19 -26 17 -40 -2 -24 -15 12 -16 11 -10 -9 9 -27 -14 -31 -38 -6
-19 18 -19 20 -6 44 12 22 38 20 56 -5z m406 -16 c24 -16 -80 -14 -116 2 -15
6 -3 8 41 7 34 -1 68 -5 75 -9z"/>
<path d="M457 738 c-7 -21 11 -58 29 -58 12 0 14 3 5 13 -8 10 -7 17 1 25 9 9
8 12 -6 12 -9 0 -14 5 -11 10 3 6 2 10 -3 10 -6 0 -12 -6 -15 -12z"/>
</g>
</svg>
